<svg id="Layer_1" data-name="Layer 1" xmlns="http://www.w3.org/2000/svg" xmlns:xlink="http://www.w3.org/1999/xlink" viewBox="0 0 451 516"><defs><style>.cls-1{fill:#ccc8c4;stroke-width:3.46px;}.cls-1,.cls-12{stroke:#ccc8c4;}.cls-1,.cls-10,.cls-11,.cls-12,.cls-14,.cls-15,.cls-16,.cls-3{stroke-linecap:round;}.cls-1,.cls-3{stroke-linejoin:round;}.cls-2{fill:#282828;}.cls-10,.cls-11,.cls-12,.cls-14,.cls-15,.cls-3{fill:none;}.cls-3{stroke:#006faf;}.cls-10,.cls-11,.cls-12,.cls-3{stroke-width:1.25px;}.cls-16,.cls-4{fill:#a89799;}.cls-5{fill:#594d4d;}.cls-6{fill:#dda88b;}.cls-7{fill:#a25b5c;}.cls-8{fill:#006faf;}.cls-9{fill:#e5e1dc;}.cls-10{stroke:#a25b5c;}.cls-10,.cls-11,.cls-12,.cls-14,.cls-15,.cls-16{stroke-miterlimit:10;}.cls-11,.cls-14,.cls-15,.cls-16{stroke:#282828;}.cls-13{fill:url(#linear-gradient);}.cls-14{stroke-width:2px;}.cls-15,.cls-16{stroke-width:2.25px;}.cls-17{fill:#31b893;}</style><linearGradient id="linear-gradient" x1="233.09" y1="373.63" x2="322.87" y2="218.12" gradientTransform="matrix(1, 0, 0, -1, 0, 518)" gradientUnits="userSpaceOnUse"><stop offset="0" stop-color="#3f94d8"/><stop offset="1" stop-color="#32b792"/></linearGradient></defs><title>doctor</title><rect class="cls-1" x="187.9" y="426.3" width="172.8" height="188"/><path class="cls-2" d="M347,328.7H178.3L136.1,863.2H238.2L272.4,448a1.24,1.24,0,0,1,1.3-1.2h0a1.32,1.32,0,0,1,1.3,1.3L277.4,852h96.2l3.2-523.4H347Z"/><rect class="cls-2" x="256.4" y="313.1" width="74.4" height="15.6"/><line class="cls-3" x1="330.9" y1="328.7" x2="256.4" y2="328.7"/><circle class="cls-4" cx="296.42" cy="46.89" r="12.5" transform="translate(53.66 223.33) rotate(-45)"/><path class="cls-4" d="M309.6,13.6A18.87,18.87,0,0,0,291.7,8a13.45,13.45,0,0,1-12.1-3.5l-.1-.1a12.44,12.44,0,0,0-16.8-.2,10.71,10.71,0,0,0-1.8,1.9,6.08,6.08,0,0,1-5.7,2.5,12.47,12.47,0,0,0-13.4,16.3,8.29,8.29,0,0,1-1.9,8.5L236,37.3a9.69,9.69,0,0,0-.3,13.5,9.57,9.57,0,0,0,13.7.2,10,10,0,0,0,1-1.1l8.6-10-6.3-6.3a12.54,12.54,0,0,0,9.9-3.6,12.66,12.66,0,0,0,3.1-5,12.5,12.5,0,0,0,11-.1,18.88,18.88,0,0,0,5.5,15.6,19.19,19.19,0,0,0,27.8-.7A19.7,19.7,0,0,0,309.6,13.6Z"/><path class="cls-5" d="M257.1,14.6h0a7.34,7.34,0,0,0-7.3,7.3V38.8h14.6V21.9A7.21,7.21,0,0,0,257.1,14.6Z"/><path class="cls-5" d="M271.8,14.6h0a7.34,7.34,0,0,0-7.3,7.3V38.8h14.6V21.9A7.34,7.34,0,0,0,271.8,14.6Z"/><polygon class="cls-6" points="252.8 72.3 246.7 122 271.8 136.7 291.6 122.4 285.7 72.3 252.8 72.3"/><polygon class="cls-7" points="252.8 72.3 250.1 94.1 269.2 88.3 252.8 72.3"/><path class="cls-6" d="M249.8,69,239.3,58.5a5.83,5.83,0,0,1-1.7-4.1h0a5.8,5.8,0,0,1,5.8-5.8h6.4Z"/><path class="cls-6" d="M288.4,69,299,58.4a5.83,5.83,0,0,0,1.7-4.1h0a5.8,5.8,0,0,0-5.8-5.8h-6.4V69Z"/><path class="cls-6" d="M269.2,88.3h0A19.31,19.31,0,0,1,249.9,69V38.8a19.31,19.31,0,0,1,19.3-19.3h0a19.31,19.31,0,0,1,19.3,19.3V69A19.38,19.38,0,0,1,269.2,88.3Z"/><polygon class="cls-8" points="333.8 313.1 256.5 313.1 237.9 120 315.2 120 333.8 313.1"/><path class="cls-9" d="M447.7,275.7l-41.4-94.4a97.35,97.35,0,0,0-90.4-61.4h-.6v66.5h.6a30.12,30.12,0,0,1,17.2,5.3,30.72,30.72,0,0,1,11.3,14.1l33.9,75.6L326.5,341l50.2,43.7,65.2-74.9A33.36,33.36,0,0,0,447.7,275.7Z"/><path class="cls-9" d="M242.4,119.9H226.5a97.26,97.26,0,0,0-92.2,66.3c-7.7,22.9-22.5,68.9-22.5,68.9l-34-31L61.1,304l40.6,40.5q1.8,1.65,3.6,3A33.39,33.39,0,0,0,158,328.6c.8-2.8-.3-1.6,17-53.7h0L72.8,610.5a16.55,16.55,0,0,0,12,19.7L225,655.1A16.64,16.64,0,0,0,245.8,639l13.3-399.3a377.48,377.48,0,0,0-7.3-73.4Z"/><path class="cls-9" d="M364.2,284.5l15.9-109.6-64.9-55H295.6l6.4,28a410.8,410.8,0,0,1,10.3,91.8v401a17.38,17.38,0,0,0,24.3,15.9l88-23.5a17.39,17.39,0,0,0,10-19.7Z"/><path class="cls-8" d="M275.3,119.9l-25.8-15a2.35,2.35,0,0,0-3.5,1.5L242.5,120l17.6,22.6a3.35,3.35,0,0,0,5.7-.7Z"/><path class="cls-8" d="M275.2,119.9,290.1,106a2.06,2.06,0,0,1,3.5,1.2l2,12.7-3.7,20.6a2.62,2.62,0,0,1-4.9.8Z"/><line class="cls-10" x1="293.5" y1="54.9" x2="288.4" y2="59.4"/><line class="cls-10" x1="244.8" y1="54.9" x2="250.2" y2="59.8"/><path class="cls-4" d="M291.6,48.5h0A12.5,12.5,0,0,1,279.1,36V21.6h12.5Z"/><line class="cls-11" x1="269.2" y1="42.9" x2="269.2" y2="57.2"/><path class="cls-11" d="M260.2,57.2s1.3,6.3,9,6.3"/><line class="cls-12" x1="113.1" y1="256.7" x2="141.8" y2="281.6"/><path class="cls-13" d="M304.1,296.4,281.6,154l5.5-12.6L275.3,120l-9.6,21.9,8.5,12.8-9,141.4a3.66,3.66,0,0,0,.9,2.8L284,319a3.58,3.58,0,0,0,5.6-.3l13.9-19.6A4.46,4.46,0,0,0,304.1,296.4Z"/><path class="cls-11" d="M245.7,124,260,142.4a3.35,3.35,0,0,0,5.7-.7l9.6-21.9"/><path class="cls-11" d="M294.7,125.1,292,140.5a2.62,2.62,0,0,1-4.9.8l-11.9-21.4"/><line class="cls-14" x1="275.3" y1="154.5" x2="280.3" y2="153.9"/><line class="cls-12" x1="367.8" y1="301.5" x2="382.6" y2="370.6"/><line class="cls-12" x1="376.7" y1="198.3" x2="368" y2="258.4"/><line class="cls-12" x1="174.9" y1="274.7" x2="174.9" y2="202.6"/><path class="cls-12" d="M242.4,119.9H226.5a97.26,97.26,0,0,0-92.2,66.3c-7.7,22.9-22.5,68.9-22.5,68.9l-34-31L61.1,304l40.6,40.5q1.8,1.65,3.6,3A33.39,33.39,0,0,0,158,328.6c.8-2.8-.3-1.6,17-53.7h0L72.8,610.5a16.55,16.55,0,0,0,12,19.7L225,655.1A16.64,16.64,0,0,0,245.8,639l13.3-399.3a377.48,377.48,0,0,0-7.3-73.4Z"/><path class="cls-2" d="M69.4,306.9h0a13.44,13.44,0,0,0,13.5-13.5v-61a13.44,13.44,0,0,0-13.5-13.5h0a13.44,13.44,0,0,0-13.5,13.5v61A13.57,13.57,0,0,0,69.4,306.9Z"/><path class="cls-12" d="M447.7,275.7l-41.4-94.4a97.35,97.35,0,0,0-90.4-61.4H295.7l6.4,28a410.8,410.8,0,0,1,10.3,91.8v401a17.38,17.38,0,0,0,24.3,15.9l88-23.5a17.39,17.39,0,0,0,10-19.7l-50.8-237,58-66.6A33.36,33.36,0,0,0,447.7,275.7Zm-83.5,8.8,3.8-26.2,10.4,23.1-11.9,13.7Z"/><path class="cls-8" d="M77.6,236.5l-7.4-5.4-.7,4.2a8.68,8.68,0,0,0-5.7,8.1v27l-3,18.5,5.7,4.3,1.5,1.2h0a8.31,8.31,0,0,0,4.4,1.2h0a8.71,8.71,0,0,0,8.7-8.7V243.4A8.71,8.71,0,0,0,77.6,236.5Z"/><path class="cls-2" d="M66.5,291.1h0a8.71,8.71,0,0,0,8.7-8.7V239a8.71,8.71,0,0,0-8.7-8.7h0a8.71,8.71,0,0,0-8.7,8.7v43.5A8.69,8.69,0,0,0,66.5,291.1Z"/><path class="cls-6" d="M41.9,242.6,37.5,235a24.18,24.18,0,0,1-1.8-20.5h0l-7.1-10.7a3.21,3.21,0,0,1,.4-3.5h0a3.31,3.31,0,0,1,5.1,0l17.8,17.6a32.4,32.4,0,0,1,6.5,12.8l2.5,9.8Z"/><path class="cls-6" d="M22.1,251.8l7.5-40.4,37.3,23a2.77,2.77,0,0,1,1.3,2.3v49.8a2.71,2.71,0,0,1-4.5,2Z"/><path class="cls-6" d="M23.2,246.5.5,207.5a3.51,3.51,0,0,1,1.4-4.4h0a3.44,3.44,0,0,1,4.7,1.2l20.5,26.2Z"/><path class="cls-6" d="M24.7,238.1,2,199.1a3.51,3.51,0,0,1,1.4-4.4h0a3.44,3.44,0,0,1,4.7,1.2l24,26.8Z"/><path class="cls-6" d="M32.6,236.5l-22.7-39a3.51,3.51,0,0,1,1.4-4.4h0a3.44,3.44,0,0,1,4.7,1.2l20.5,26.2Z"/><path class="cls-10" d="M41.9,242.6,37.5,235a24.12,24.12,0,0,1-2.8-17"/><path class="cls-6" d="M22.1,251.8l-3.9-3.7a27.72,27.72,0,0,1-6.6-9.3L2,217.4A3.51,3.51,0,0,1,3.4,213h0a3.44,3.44,0,0,1,4.7,1.2l16.5,26.5Z"/><line class="cls-10" x1="8.2" y1="214.1" x2="21.1" y2="234.8"/><line class="cls-10" x1="6.7" y1="204.2" x2="24.7" y2="226.4"/><line class="cls-10" x1="11.2" y1="199.1" x2="28.2" y2="218.4"/><polyline class="cls-12" points="233.1 119.9 204.1 158.9 233.1 184.8"/><polyline class="cls-12" points="245 168.7 213 213.5 255.8 253.7"/><polyline class="cls-12" points="313.4 121.3 348.4 154.2 323.9 183.9"/><polyline class="cls-12" points="309.6 170.4 348.4 208.4 312.7 254.2"/><circle class="cls-4" cx="234.2" cy="163.9" r="14.5"/><path class="cls-15" d="M319.1,211.2H307c-5.1,0-8.9-5.6-6.8-9.8l20.7-37.5,29.9,37.2c3.6,4.2,1.4,10.1-3.8,10.1H336.7"/><line class="cls-15" x1="320.9" y1="163.9" x2="308.6" y2="118.2"/><line class="cls-15" x1="234.2" y1="163.9" x2="224.6" y2="117.6"/><circle class="cls-16" cx="234.2" cy="163.9" r="5.9"/><circle class="cls-17" cx="319.1" cy="211.2" r="3.5"/><circle class="cls-17" cx="336.1" cy="211.2" r="3.5"/></svg>